<?xml version="1.0" encoding="utf-8"?>
<!-- Generator: Adobe Illustrator 23.0.1, SVG Export Plug-In . SVG Version: 6.00 Build 0)  -->
<svg version="1.1" id="Layer_1" xmlns="http://www.w3.org/2000/svg" xmlns:xlink="http://www.w3.org/1999/xlink" x="0px" y="0px"
	 viewBox="0 0 1878.5 363.8" style="enable-background:new 0 0 1878.5 363.8;" xml:space="preserve">
<style type="text/css">
	.st0{fill:#247BA0;}
</style>
<g>
	<path class="st0" d="M0,253.8v-11.3c0-5.8,3-10.4,8.9-13.9l114.9-68c3.1-2.1,6.3-3.1,9.4-3.1c3.7,0,7,1.4,10,4.3
		c2.9,2.9,4.4,6.4,4.4,10.6c0,5.4-2.1,9.4-6.4,12L33.7,248.1l107.5,63.2c4.3,2.8,6.4,6.9,6.4,12.4c0,4.2-1.5,7.7-4.4,10.6
		s-6.3,4.4-10,4.4c-2.9,0-6-1-9.4-3.1L8.8,267.7C3,264.5,0,259.9,0,253.8z"/>
	<path class="st0" d="M214.7,349.2V210.9c0-4.1,1.4-7.6,4.3-10.5s6.3-4.4,10.3-4.4s7.5,1.4,10.3,4.3c2.8,2.9,4.3,6.4,4.3,10.6v18.2
		l23.8-20.3c9.8-8.3,19.4-12.5,28.8-12.5h21.4c12,0,22.3,4.3,30.9,12.8s12.8,18.9,12.8,30.9v7.8c0,4.2-1.4,7.7-4.3,10.6
		c-2.8,2.9-6.3,4.3-10.3,4.3s-7.5-1.4-10.3-4.3c-2.8-2.8-4.3-6.3-4.3-10.3V240c0-4.1-1.4-7.5-4.3-10.3c-2.8-2.8-6.3-4.3-10.3-4.3
		h-18.9c-4,0-8.6,2.1-13.5,6.4l-41.5,35.9v81.4c0,4-1.4,7.5-4.3,10.3s-6.3,4.3-10.2,4.3c-4.1,0-7.5-1.4-10.3-4.3
		C216.1,356.7,214.7,353.2,214.7,349.2z"/>
	<path class="st0" d="M576.2,248.9v61.6c0,13.1-6.2,25.2-18.5,36.3s-25,16.7-38.1,16.7h-34.2c-13.3,0-26-5.6-38.2-16.9
		s-18.2-23.3-18.2-36v-61.6c0-12.7,5.9-24.7,17.8-36c11.9-11.3,24.7-16.9,38.6-16.9h34.2c13.1-0.2,25.8,5.2,38.1,16.3
		C570.1,223.4,576.2,235.6,576.2,248.9z M458.6,250.1v59c0,5.3,1.9,9.5,5.7,12.7l10.9,9.4c2.4,2.1,5.8,3.1,10.2,3.1h33.8
		c5,0,9.5-1.8,13.5-5.4l8.8-7.8c3.6-2.8,5.4-6.6,5.4-11.6v-59c0-5.8-1.8-10.1-5.4-12.8l-10.2-8.2c-3.5-2.9-7.5-4.3-12.2-4.3h-30.2
		c-6.6,0-11.7,1.6-15.3,4.7l-9.9,8.5C460.4,241.3,458.6,245.2,458.6,250.1z"/>
	<path class="st0" d="M644.1,349.2V148c0-4.2,1.4-7.7,4.3-10.6c2.8-2.9,6.3-4.3,10.3-4.3s7.5,1.4,10.3,4.3c2.8,2.9,4.3,6.4,4.3,10.6
		v119.1l78.5-66.7c3.3-2.8,7-4.2,10.9-4.2c4.2,0,7.6,1.5,10.4,4.4c2.8,3,4.2,6.5,4.2,10.5c0,4.3-1.5,7.7-4.5,10.3l-61.2,51.7
		l75.3,66.2c3,2.4,4.5,5.6,4.5,9.5c0,3.8-1.4,7.3-4.2,10.3s-6.2,4.6-10.2,4.6s-7.6-1.3-10.8-4l-77.7-67.5l-15.3,12.9v44.1
		c0,4-1.4,7.5-4.3,10.3c-2.8,2.8-6.3,4.3-10.3,4.3s-7.5-1.4-10.3-4.3C645.5,356.7,644.1,353.2,644.1,349.2z"/>
	<path class="st0" d="M1005.6,248.9v61.6c0,13.1-6.2,25.2-18.5,36.3s-25,16.7-38.1,16.7h-34.2c-13.3,0-26-5.6-38.2-16.9
		s-18.2-23.3-18.2-36v-61.6c0-12.7,5.9-24.7,17.8-36s24.7-16.9,38.6-16.9h34.2c13.1-0.2,25.8,5.2,38.1,16.3
		C999.5,223.4,1005.6,235.6,1005.6,248.9z M888,250.1v59c0,5.3,1.9,9.5,5.7,12.7l10.9,9.4c2.4,2.1,5.8,3.1,10.2,3.1h33.8
		c5,0,9.5-1.8,13.5-5.4l8.8-7.8c3.6-2.8,5.4-6.6,5.4-11.6v-59c0-5.8-1.8-10.1-5.4-12.8l-10.2-8.2c-3.5-2.9-7.5-4.3-12.2-4.3h-30.2
		c-6.6,0-11.7,1.6-15.3,4.7l-9.9,8.5C889.7,241.3,888,245.2,888,250.1z"/>
	<path class="st0" d="M1220.5,210.9v27.8l-50.6,114.9c-3.2,6.8-7.5,10.2-12.8,10.2h-18.8c-6.8,0-11.8-3.5-14.9-10.6L1073.1,239
		v-28.1c0-4.1,1.4-7.5,4.3-10.3c2.8-2.8,6.3-4.3,10.3-4.3c4.1,0,7.5,1.4,10.3,4.3c2.8,2.8,4.3,6.3,4.3,10.3l0.1,22.4l44.4,100
		l44.2-100.3l0-22c0-4.1,1.4-7.5,4.3-10.3s6.4-4.3,10.6-4.3c4.1,0,7.5,1.4,10.3,4.3C1219.1,203.4,1220.5,206.8,1220.5,210.9z"/>
	<path class="st0" d="M1420.8,363.8h-62.3c-11,0-20.4-3.3-28.1-9.9l-28.3-24.6c-9-7.5-13.5-17.7-13.5-30.5v-38
		c-0.5-12.4,4.6-23.1,15.3-32.3l25.5-22c8.2-6.7,17-10.1,26.4-10.1h65.4c4.1,0,7.5,1.4,10.3,4.3c2.8,2.8,4.3,6.3,4.3,10.3
		c0,4.2-1.4,7.6-4.3,10.4c-2.8,2.8-6.3,4.2-10.3,4.2h-62.7c-3.9,0-7.7,1.6-11.3,4.7l-23.4,20c-3.8,3.2-5.7,7.6-5.7,13v35.6
		c0,3.8,1.5,7.1,4.5,9.7l25.7,21.9c3.2,2.9,7.5,4.3,12.8,4.3h59.7c3.9,0,7.3,1.4,10.2,4.3c2.9,2.8,4.3,6.3,4.3,10.3
		s-1.4,7.5-4.3,10.3C1428.3,362.4,1424.8,363.8,1420.8,363.8z"/>
	<path class="st0" d="M1620.6,363.4h-88.9c-4.1,0-7.5-1.4-10.3-4.3s-4.3-6.3-4.3-10.3c0-3.9,1.4-7.4,4.3-10.2
		c2.8-2.9,6.3-4.3,10.3-4.3h29.8V225.4H1532c-4.1,0-7.5-1.4-10.3-4.3s-4.3-6.3-4.3-10.2c0-4.1,1.4-7.6,4.3-10.5s6.3-4.4,10.3-4.4
		h44.4c4.1,0,7.5,1.5,10.3,4.4c2.8,2.9,4.3,6.4,4.3,10.5v123.4h29.2c4.1,0,7.6,1.4,10.5,4.3c2.9,2.8,4.4,6.3,4.4,10.3
		s-1.4,7.5-4.3,10.3C1627.9,362,1624.5,363.4,1620.6,363.4z"/>
	<path class="st0" d="M1868.8,242.5v11.3c0,5.9-2.8,10.6-8.5,13.9l-114.9,67.7c-3.4,2.1-6.5,3.1-9.6,3.1c-3.7,0-7-1.4-10-4.2
		s-4.4-6.3-4.4-10.6c0-5.6,2.2-9.6,6.6-12.2l107.3-63.6L1728,184.9c-4.4-2.8-6.6-7-6.6-12.5c0-4.3,1.5-7.8,4.4-10.6
		c2.9-2.8,6.3-4.2,10-4.2c2.9,0,6.1,1,9.6,3.1l114.9,67.9C1865.9,232,1868.8,236.6,1868.8,242.5z"/>
</g>
<g>
	<path class="st0" d="M1560.3,61.9V14.9c0-4.1,1.5-7.6,4.6-10.6c3-2.9,6.7-4.4,11.1-4.4c4.1,0,7.6,1.5,10.6,4.4s4.4,6.4,4.4,10.6
		v46.9h46.9c4.3,0,7.9,1.5,11,4.5c3.1,3,4.6,6.6,4.6,10.8s-1.6,7.9-4.6,10.8s-6.8,4.5-11,4.5h-46.6v46.9c0,4.4-1.6,8.1-4.6,11.1
		s-6.8,4.6-11,4.6s-7.9-1.5-10.8-4.6s-4.5-6.7-4.5-11.1v-47h-46.9c-4.1,0-7.7-1.5-10.7-4.5c-3-3-4.6-6.6-4.6-10.8
		c0-4.1,1.5-7.7,4.6-10.7c3-3,6.6-4.5,10.7-4.5L1560.3,61.9L1560.3,61.9z"/>
	<path class="st0" d="M1785.4,61.9V14.9c0-4.1,1.5-7.6,4.6-10.6c3-2.9,6.7-4.4,11.1-4.4c4.1,0,7.6,1.5,10.6,4.4s4.4,6.4,4.4,10.6
		v46.9h46.9c4.3,0,7.9,1.5,11,4.5c3.1,3,4.6,6.6,4.6,10.8s-1.6,7.9-4.6,10.8s-6.8,4.5-11,4.5h-46.6v46.9c0,4.4-1.6,8.1-4.6,11.1
		s-6.8,4.6-11,4.6s-7.9-1.5-10.8-4.6s-4.5-6.7-4.5-11.1v-47h-46.9c-4.1,0-7.7-1.5-10.7-4.5c-3-3-4.6-6.6-4.6-10.8
		c0-4.1,1.5-7.7,4.6-10.7c3-3,6.6-4.5,10.7-4.5L1785.4,61.9L1785.4,61.9z"/>
</g>
</svg>
