<?xml version="1.0" encoding="UTF-8" standalone="no"?><!-- Generator: Gravit.io --><svg xmlns="http://www.w3.org/2000/svg" xmlns:xlink="http://www.w3.org/1999/xlink" style="isolation:isolate" viewBox="0 0 595.276 841.89" width="595.276pt" height="841.89pt"><defs><clipPath id="_clipPath_cCuB0lBMNUfA2SzzWlcHGQm3vRgTcZDq"><rect width="595.276" height="841.89"/></clipPath></defs><g clip-path="url(#_clipPath_cCuB0lBMNUfA2SzzWlcHGQm3vRgTcZDq)"><path d=" M 90.553 324.362 L 150.417 274.948 L 162.428 289.987 L 119.46 324.362 L 162.428 358.737 L 150.417 373.776 L 90.553 324.362 L 90.553 324.362 Z " fill="rgb(0,0,0)"/><path d=" M 421.988 325.112 L 362.125 275.698 L 350.113 290.737 L 393.082 325.112 L 350.113 359.487 L 362.125 374.526 L 421.988 325.112 L 421.988 325.112 Z " fill="rgb(0,0,0)"/><path d=" M 153.41 339.976 L 153.166 339.976 L 153.166 317.637 L 153.166 317.637 Q 153.166 314.366 157.731 312.608 L 157.731 312.608 L 157.731 312.608 Q 160.197 311.656 163.298 311.656 L 163.298 311.656 L 166.594 311.656 L 166.594 311.9 L 164.641 316.05 L 163.298 316.05 L 163.298 316.05 Q 161.101 316.05 159.575 316.661 L 159.575 316.661 L 159.575 316.661 Q 158.049 317.271 158.049 318.492 L 158.049 318.492 L 158.049 337.779 L 153.41 339.976 L 153.41 339.976 Z  M 175.627 318.492 L 175.627 332.652 L 175.627 332.652 Q 175.627 333.873 177.153 334.483 L 177.153 334.483 L 177.153 334.483 Q 178.679 335.093 180.876 335.093 L 180.876 335.093 L 180.876 335.093 Q 183.073 335.093 184.599 334.483 L 184.599 334.483 L 184.599 334.483 Q 186.125 333.873 186.125 332.652 L 186.125 332.652 L 186.125 318.492 L 186.125 318.492 Q 186.125 317.271 184.599 316.661 L 184.599 316.661 L 184.599 316.661 Q 183.073 316.05 180.876 316.05 L 180.876 316.05 L 180.876 316.05 Q 178.679 316.05 177.153 316.661 L 177.153 316.661 L 177.153 316.661 Q 175.627 317.271 175.627 318.492 L 175.627 318.492 L 175.627 318.492 Z  M 170.744 333.506 L 170.744 333.506 L 170.744 317.637 L 170.744 317.637 Q 170.744 314.415 175.31 312.608 L 175.31 312.608 L 175.31 312.608 Q 177.775 311.656 180.876 311.656 L 180.876 311.656 L 180.876 311.656 Q 183.977 311.656 186.442 312.608 L 186.442 312.608 L 186.442 312.608 Q 191.008 314.415 191.008 317.637 L 191.008 317.637 L 191.008 333.506 L 191.008 333.506 Q 191.008 336.729 186.442 338.536 L 186.442 338.536 L 186.442 338.536 Q 183.977 339.488 180.876 339.488 L 180.876 339.488 L 180.876 339.488 Q 177.775 339.488 175.31 338.536 L 175.31 338.536 L 175.31 338.536 Q 170.744 336.729 170.744 333.506 Z  M 199.797 339.976 L 199.553 339.976 L 199.553 303.355 L 204.191 301.158 L 204.436 301.158 L 204.436 321.495 L 214.641 311.168 L 214.885 311.168 L 219.182 313.194 L 211.003 320.713 L 211.003 320.713 Q 213.322 320.884 215.251 321.617 L 215.251 321.617 L 215.251 321.617 Q 219.816 323.35 219.816 326.646 L 219.816 326.646 L 219.816 337.779 L 215.178 339.976 L 214.934 339.976 L 214.934 327.501 L 214.934 327.501 Q 214.934 326.28 213.408 325.67 L 213.408 325.67 L 213.408 325.67 Q 211.882 325.059 209.685 325.059 L 209.685 325.059 L 209.685 325.059 Q 207.487 325.059 205.961 325.67 L 205.961 325.67 L 205.961 325.67 Q 204.436 326.28 204.436 327.501 L 204.436 327.501 L 204.436 337.779 L 199.797 339.976 L 199.797 339.976 Z  M 232.023 318.492 L 232.023 332.652 L 232.023 332.652 Q 232.023 333.873 233.549 334.483 L 233.549 334.483 L 233.549 334.483 Q 235.075 335.093 237.272 335.093 L 237.272 335.093 L 237.272 335.093 Q 239.47 335.093 240.996 334.483 L 240.996 334.483 L 240.996 334.483 Q 242.521 333.873 242.521 332.652 L 242.521 332.652 L 242.521 318.492 L 242.521 318.492 Q 242.521 317.271 240.996 316.661 L 240.996 316.661 L 240.996 316.661 Q 239.47 316.05 237.272 316.05 L 237.272 316.05 L 237.272 316.05 Q 235.075 316.05 233.549 316.661 L 233.549 316.661 L 233.549 316.661 Q 232.023 317.271 232.023 318.492 L 232.023 318.492 L 232.023 318.492 Z  M 227.141 333.506 L 227.141 333.506 L 227.141 317.637 L 227.141 317.637 Q 227.141 314.415 231.706 312.608 L 231.706 312.608 L 231.706 312.608 Q 234.172 311.656 237.272 311.656 L 237.272 311.656 L 237.272 311.656 Q 240.373 311.656 242.839 312.608 L 242.839 312.608 L 242.839 312.608 Q 247.404 314.415 247.404 317.637 L 247.404 317.637 L 247.404 333.506 L 247.404 333.506 Q 247.404 336.729 242.839 338.536 L 242.839 338.536 L 242.839 338.536 Q 240.373 339.488 237.272 339.488 L 237.272 339.488 L 237.272 339.488 Q 234.172 339.488 231.706 338.536 L 231.706 338.536 L 231.706 338.536 Q 227.141 336.729 227.141 333.506 Z  M 260.734 339.976 L 260.49 339.976 L 251.066 313.17 L 255.29 311.168 L 255.534 311.168 L 262.443 331.529 L 269.206 311.168 L 269.45 311.168 L 273.674 313.17 L 264.958 337.974 L 260.734 339.976 L 260.734 339.976 Z  M 302.971 325.572 L 303.215 325.572 L 303.215 331.431 L 303.215 331.431 Q 303.215 335.899 297.673 338.194 L 297.673 338.194 L 297.673 338.194 Q 294.572 339.488 290.886 339.488 L 290.886 339.488 L 290.886 339.488 Q 287.199 339.488 284.099 338.194 L 284.099 338.194 L 284.099 338.194 Q 278.557 335.899 278.557 331.431 L 278.557 331.431 L 278.557 309.703 L 278.557 309.703 Q 278.557 305.235 284.099 302.94 L 284.099 302.94 L 284.099 302.94 Q 287.199 301.646 290.886 301.646 L 290.886 301.646 L 290.886 301.646 Q 294.572 301.646 297.673 302.94 L 297.673 302.94 L 297.673 302.94 Q 303.215 305.235 303.215 309.703 L 303.215 309.703 L 303.215 313.365 L 298.576 315.562 L 298.332 315.562 L 298.332 309.703 L 298.332 309.703 Q 298.332 308.043 295.378 306.846 L 295.378 306.846 L 295.378 306.846 Q 293.327 306.041 290.886 306.041 L 290.886 306.041 L 290.886 306.041 Q 288.444 306.041 286.394 306.846 L 286.394 306.846 L 286.394 306.846 Q 283.439 308.018 283.439 309.703 L 283.439 309.703 L 283.439 331.431 L 283.439 331.431 Q 283.439 333.091 286.394 334.288 L 286.394 334.288 L 286.394 334.288 Q 288.444 335.093 290.886 335.093 L 290.886 335.093 L 290.886 335.093 Q 293.327 335.093 295.378 334.288 L 295.378 334.288 L 295.378 334.288 Q 298.332 333.116 298.332 331.431 L 298.332 331.431 L 298.332 327.769 L 302.971 325.572 L 302.971 325.572 Z  M 313.347 306.749 L 313.347 306.749 L 313.347 306.749 Q 312.492 305.87 312.492 304.637 L 312.492 304.637 L 312.492 304.637 Q 312.492 303.404 313.347 302.525 L 313.347 302.525 L 313.347 302.525 Q 314.201 301.646 315.422 301.646 L 315.422 301.646 L 315.422 301.646 Q 316.643 301.646 317.497 302.525 L 317.497 302.525 L 317.497 302.525 Q 318.352 303.404 318.352 304.637 L 318.352 304.637 L 318.352 304.637 Q 318.352 305.87 317.497 306.749 L 317.497 306.749 L 317.497 306.749 Q 316.643 307.628 315.422 307.628 L 315.422 307.628 L 315.422 307.628 Q 314.201 307.628 313.347 306.749 Z  M 313.225 339.976 L 312.98 339.976 L 312.98 313.365 L 317.619 311.168 L 317.863 311.168 L 317.863 337.779 L 313.225 339.976 L 313.225 339.976 Z " fill="rgb(0,0,0)"/><path d=" M 310.781 305.689 C 310.781 303.219 313.302 301.213 316.406 301.213 C 319.511 301.213 322.031 303.219 322.031 305.689 C 322.031 308.16 319.511 310.166 316.406 310.166 C 313.302 310.166 310.781 308.16 310.781 305.689 Z " fill="rgb(255,255,255)"/><path d=" M 316.988 291.799 L 317.184 291.799 L 317.184 298.947 L 324.332 298.947 L 324.332 299.143 L 322.75 302.502 L 317.184 302.502 L 317.184 308.069 L 313.824 309.651 L 313.629 309.651 L 313.629 302.502 L 306.48 302.502 L 306.48 302.307 L 308.063 298.947 L 313.629 298.947 L 313.629 293.381 L 316.988 291.799 L 316.988 291.799 Z " fill="rgb(0,0,0)"/><path d=" M 338.207 291.799 L 338.402 291.799 L 338.402 298.947 L 345.551 298.947 L 345.551 299.143 L 343.969 302.502 L 338.402 302.502 L 338.402 308.069 L 335.043 309.651 L 334.848 309.651 L 334.848 302.502 L 327.699 302.502 L 327.699 302.307 L 329.281 298.947 L 334.848 298.947 L 334.848 293.381 L 338.207 291.799 L 338.207 291.799 Z " fill="rgb(0,0,0)"/></g></svg>