<?xml version="1.0" encoding="UTF-8" standalone="no"?><!-- Generator: Gravit.io --><svg xmlns="http://www.w3.org/2000/svg" xmlns:xlink="http://www.w3.org/1999/xlink" style="isolation:isolate" viewBox="0 0 331.4 99.6" width="331.4pt" height="99.6pt"><defs><clipPath id="_clipPath_4dHiGL2TWZF0jr4Vx5fyMXGtHuKDoiZE"><rect width="331.4" height="99.6"/></clipPath></defs><g clip-path="url(#_clipPath_4dHiGL2TWZF0jr4Vx5fyMXGtHuKDoiZE)"><clipPath id="_clipPath_YI2bkZKisEmEzH4NsU7F3zKStCxiQXPI"><rect x="0" y="0" width="595.276" height="841.89" transform="matrix(1,0,0,1,0,0)" fill="rgb(255,255,255)"/></clipPath><g clip-path="url(#_clipPath_YI2bkZKisEmEzH4NsU7F3zKStCxiQXPI)"><g><path d=" M 0 49.414 L 59.864 0 L 71.875 15.039 L 28.907 49.414 L 71.875 83.789 L 59.864 98.828 L 0 49.414 L 0 49.414 Z " fill="rgb(0,0,0)"/><path d=" M 331.435 50.164 L 271.572 0.75 L 259.56 15.789 L 302.529 50.164 L 259.56 84.539 L 271.572 99.578 L 331.435 50.164 L 331.435 50.164 Z " fill="rgb(0,0,0)"/><path d=" M 62.857 65.028 L 62.613 65.028 L 62.613 42.689 L 62.613 42.689 Q 62.613 39.418 67.178 37.66 L 67.178 37.66 L 67.178 37.66 Q 69.644 36.708 72.745 36.708 L 72.745 36.708 L 76.041 36.708 L 76.041 36.952 L 74.088 41.102 L 72.745 41.102 L 72.745 41.102 Q 70.548 41.102 69.022 41.713 L 69.022 41.713 L 69.022 41.713 Q 67.496 42.323 67.496 43.544 L 67.496 43.544 L 67.496 62.831 L 62.857 65.028 L 62.857 65.028 Z  M 85.074 43.544 L 85.074 57.704 L 85.074 57.704 Q 85.074 58.925 86.6 59.535 L 86.6 59.535 L 86.6 59.535 Q 88.126 60.145 90.323 60.145 L 90.323 60.145 L 90.323 60.145 Q 92.52 60.145 94.046 59.535 L 94.046 59.535 L 94.046 59.535 Q 95.572 58.925 95.572 57.704 L 95.572 57.704 L 95.572 43.544 L 95.572 43.544 Q 95.572 42.323 94.046 41.713 L 94.046 41.713 L 94.046 41.713 Q 92.52 41.102 90.323 41.102 L 90.323 41.102 L 90.323 41.102 Q 88.126 41.102 86.6 41.713 L 86.6 41.713 L 86.6 41.713 Q 85.074 42.323 85.074 43.544 L 85.074 43.544 L 85.074 43.544 Z  M 80.191 58.558 L 80.191 58.558 L 80.191 42.689 L 80.191 42.689 Q 80.191 39.467 84.757 37.66 L 84.757 37.66 L 84.757 37.66 Q 87.222 36.708 90.323 36.708 L 90.323 36.708 L 90.323 36.708 Q 93.424 36.708 95.889 37.66 L 95.889 37.66 L 95.889 37.66 Q 100.455 39.467 100.455 42.689 L 100.455 42.689 L 100.455 58.558 L 100.455 58.558 Q 100.455 61.781 95.889 63.588 L 95.889 63.588 L 95.889 63.588 Q 93.424 64.54 90.323 64.54 L 90.323 64.54 L 90.323 64.54 Q 87.222 64.54 84.757 63.588 L 84.757 63.588 L 84.757 63.588 Q 80.191 61.781 80.191 58.558 Z  M 109.244 65.028 L 109 65.028 L 109 28.407 L 113.638 26.21 L 113.883 26.21 L 113.883 46.547 L 124.088 36.22 L 124.332 36.22 L 128.629 38.246 L 120.45 45.765 L 120.45 45.765 Q 122.769 45.936 124.698 46.669 L 124.698 46.669 L 124.698 46.669 Q 129.263 48.402 129.263 51.698 L 129.263 51.698 L 129.263 62.831 L 124.625 65.028 L 124.381 65.028 L 124.381 52.553 L 124.381 52.553 Q 124.381 51.332 122.855 50.722 L 122.855 50.722 L 122.855 50.722 Q 121.329 50.111 119.132 50.111 L 119.132 50.111 L 119.132 50.111 Q 116.934 50.111 115.408 50.722 L 115.408 50.722 L 115.408 50.722 Q 113.883 51.332 113.883 52.553 L 113.883 52.553 L 113.883 62.831 L 109.244 65.028 L 109.244 65.028 Z  M 141.47 43.544 L 141.47 57.704 L 141.47 57.704 Q 141.47 58.925 142.996 59.535 L 142.996 59.535 L 142.996 59.535 Q 144.522 60.145 146.719 60.145 L 146.719 60.145 L 146.719 60.145 Q 148.917 60.145 150.443 59.535 L 150.443 59.535 L 150.443 59.535 Q 151.968 58.925 151.968 57.704 L 151.968 57.704 L 151.968 43.544 L 151.968 43.544 Q 151.968 42.323 150.443 41.713 L 150.443 41.713 L 150.443 41.713 Q 148.917 41.102 146.719 41.102 L 146.719 41.102 L 146.719 41.102 Q 144.522 41.102 142.996 41.713 L 142.996 41.713 L 142.996 41.713 Q 141.47 42.323 141.47 43.544 L 141.47 43.544 L 141.47 43.544 Z  M 136.588 58.558 L 136.588 58.558 L 136.588 42.689 L 136.588 42.689 Q 136.588 39.467 141.153 37.66 L 141.153 37.66 L 141.153 37.66 Q 143.619 36.708 146.719 36.708 L 146.719 36.708 L 146.719 36.708 Q 149.82 36.708 152.286 37.66 L 152.286 37.66 L 152.286 37.66 Q 156.851 39.467 156.851 42.689 L 156.851 42.689 L 156.851 58.558 L 156.851 58.558 Q 156.851 61.781 152.286 63.588 L 152.286 63.588 L 152.286 63.588 Q 149.82 64.54 146.719 64.54 L 146.719 64.54 L 146.719 64.54 Q 143.619 64.54 141.153 63.588 L 141.153 63.588 L 141.153 63.588 Q 136.588 61.781 136.588 58.558 Z  M 170.181 65.028 L 169.937 65.028 L 160.513 38.222 L 164.737 36.22 L 164.981 36.22 L 171.89 56.581 L 178.653 36.22 L 178.897 36.22 L 183.121 38.222 L 174.405 63.026 L 170.181 65.028 L 170.181 65.028 Z  M 212.418 50.624 L 212.662 50.624 L 212.662 56.483 L 212.662 56.483 Q 212.662 60.951 207.12 63.246 L 207.12 63.246 L 207.12 63.246 Q 204.019 64.54 200.333 64.54 L 200.333 64.54 L 200.333 64.54 Q 196.646 64.54 193.546 63.246 L 193.546 63.246 L 193.546 63.246 Q 188.004 60.951 188.004 56.483 L 188.004 56.483 L 188.004 34.755 L 188.004 34.755 Q 188.004 30.287 193.546 27.992 L 193.546 27.992 L 193.546 27.992 Q 196.646 26.698 200.333 26.698 L 200.333 26.698 L 200.333 26.698 Q 204.019 26.698 207.12 27.992 L 207.12 27.992 L 207.12 27.992 Q 212.662 30.287 212.662 34.755 L 212.662 34.755 L 212.662 38.417 L 208.023 40.614 L 207.779 40.614 L 207.779 34.755 L 207.779 34.755 Q 207.779 33.095 204.825 31.898 L 204.825 31.898 L 204.825 31.898 Q 202.774 31.093 200.333 31.093 L 200.333 31.093 L 200.333 31.093 Q 197.891 31.093 195.841 31.898 L 195.841 31.898 L 195.841 31.898 Q 192.886 33.07 192.886 34.755 L 192.886 34.755 L 192.886 56.483 L 192.886 56.483 Q 192.886 58.143 195.841 59.34 L 195.841 59.34 L 195.841 59.34 Q 197.891 60.145 200.333 60.145 L 200.333 60.145 L 200.333 60.145 Q 202.774 60.145 204.825 59.34 L 204.825 59.34 L 204.825 59.34 Q 207.779 58.168 207.779 56.483 L 207.779 56.483 L 207.779 52.821 L 212.418 50.624 L 212.418 50.624 Z  M 222.672 65.028 L 222.427 65.028 L 222.427 38.417 L 227.066 36.22 L 227.31 36.22 L 227.31 62.831 L 222.672 65.028 L 222.672 65.028 Z " fill-rule="evenodd" fill="rgb(0,0,0)"/><path d=" M 226.435 16.851 L 226.631 16.851 L 226.631 23.999 L 233.779 23.999 L 233.779 24.195 L 232.197 27.554 L 226.631 27.554 L 226.631 33.121 L 223.271 34.703 L 223.076 34.703 L 223.076 27.554 L 215.927 27.554 L 215.927 27.359 L 217.51 23.999 L 223.076 23.999 L 223.076 18.433 L 226.435 16.851 L 226.435 16.851 Z " fill="rgb(0,0,0)"/><path d=" M 247.654 16.851 L 247.849 16.851 L 247.849 23.999 L 254.998 23.999 L 254.998 24.195 L 253.416 27.554 L 247.849 27.554 L 247.849 33.121 L 244.49 34.703 L 244.295 34.703 L 244.295 27.554 L 237.146 27.554 L 237.146 27.359 L 238.728 23.999 L 244.295 23.999 L 244.295 18.433 L 247.654 16.851 L 247.654 16.851 Z " fill="rgb(0,0,0)"/></g></g></g></svg>